<svg xmlns="http://www.w3.org/2000/svg" viewBox="0 0 24 24"><defs><style>.cls-1,.cls-2{fill:none;}.cls-2{stroke:#000;strokeLinecap:round;strokeLinejoin:round;}</style></defs><title>link</title><g id="Layer_2" data-name="Layer 2"><g id="Layer_1-2" data-name="Layer 1"><rect class="cls-1" width="24" height="24"/><rect class="cls-1" x="3" y="3" width="18" height="18"/><path class="cls-2" d="M14.06,11.86h0A2.06,2.06,0,0,1,12,13.92H7.85A3.55,3.55,0,0,1,4.3,10.37h0A3.54,3.54,0,0,1,7.85,6.83h4.09a2.11,2.11,0,0,1,2.12,2.11h0"/><path class="cls-2" d="M9.94,12.43h0A2.06,2.06,0,0,1,12,10.37h4.15a3.55,3.55,0,0,1,3.55,3.55h0a3.55,3.55,0,0,1-3.55,3.54H12a2.05,2.05,0,0,1-2.06-2.05v0"/></g></g></svg>