<svg xmlns="http://www.w3.org/2000/svg" viewBox="0 0 24 24"><defs><style>.cls-1,.cls-2,.cls-3,.cls-4{fill:none;}.cls-2,.cls-3{stroke:#000;}.cls-2,.cls-3,.cls-4{strokeLinecap:round;strokeLinejoin:round;}.cls-2{strokeWidth:0.75px;}.cls-4{stroke:#2b406e;}</style></defs><title>podcast</title><g id="Layer_2" data-name="Layer 2"><g id="Layer_1-2" data-name="Layer 1"><rect class="cls-1" width="24" height="24"/><rect class="cls-1" x="3" y="3" width="18" height="18"/><path class="cls-2" d="M16.48,7.19a3.56,3.56,0,0,0-2.26-2.32"/><path class="cls-2" d="M17.76,7a5.56,5.56,0,0,0-3.54-3.62"/><path class="cls-2" d="M19.42,6.69a7.62,7.62,0,0,0-4.84-4.94"/><path class="cls-3" d="M16.64,10.9v2.66a4.79,4.79,0,0,1-4.78,4.77h0a4.79,4.79,0,0,1-4.77-4.77V10.9"/><rect class="cls-3" x="8.66" y="6.2" width="6.41" height="10.66" rx="2.97"/><line class="cls-3" x1="8.66" y1="9.17" x2="11.86" y2="9.17"/><line class="cls-3" x1="8.66" y1="11.01" x2="11.86" y2="11.01"/><line class="cls-3" x1="8.66" y1="12.85" x2="11.86" y2="12.85"/><line class="cls-4" x1="11.86" y1="18.33" x2="11.86" y2="20.29"/><line class="cls-4" x1="8.53" y1="20.7" x2="15.2" y2="20.7"/></g></g></svg>