<svg width="1523" height="247" viewBox="0 0 1523 247" fill="none" xmlns="http://www.w3.org/2000/svg">
<g opacity="0.426386">
<path fillRule="evenodd" clipRule="evenodd" d="M48 31C48 48.1208 34.1211 62 17 62C-0.121056 62 -14 48.1208 -14 31C-14 13.8792 -0.121056 0 17 0C34.1211 0 48 13.8792 48 31Z" stroke="#4D4D4D" stroke-width="3"/>
<path fillRule="evenodd" clipRule="evenodd" d="M110 31C110 48.1208 96.1212 62 78.9998 62C61.8793 62 48 48.1208 48 31C48 13.8792 61.8793 0 78.9998 0C96.1212 0 110 13.8792 110 31Z" stroke="#4D4D4D" stroke-width="3"/>
<path fillRule="evenodd" clipRule="evenodd" d="M173 31C173 48.1208 159.121 62 142 62C124.879 62 111 48.1208 111 31C111 13.8792 124.879 0 142 0C159.121 0 173 13.8792 173 31Z" stroke="#4D4D4D" stroke-width="3"/>
<path fillRule="evenodd" clipRule="evenodd" d="M235 31C235 48.1208 221.121 62 204 62C186.879 62 173 48.1208 173 31C173 13.8792 186.879 0 204 0C221.121 0 235 13.8792 235 31Z" stroke="#4D4D4D" stroke-width="3"/>
<path fillRule="evenodd" clipRule="evenodd" d="M298 31C298 48.1208 284.121 62 267 62C249.879 62 236 48.1208 236 31C236 13.8792 249.879 0 267 0C284.121 0 298 13.8792 298 31Z" stroke="#4D4D4D" stroke-width="3"/>
<path fillRule="evenodd" clipRule="evenodd" d="M360 31C360 48.1208 346.121 62 329 62C311.879 62 298 48.1208 298 31C298 13.8792 311.879 0 329 0C346.121 0 360 13.8792 360 31Z" stroke="#4D4D4D" stroke-width="3"/>
<path fillRule="evenodd" clipRule="evenodd" d="M423 31C423 48.1208 409.121 62 392 62C374.879 62 361 48.1208 361 31C361 13.8792 374.879 0 392 0C409.121 0 423 13.8792 423 31Z" stroke="#4D4D4D" stroke-width="3"/>
<path fillRule="evenodd" clipRule="evenodd" d="M485 31C485 48.1208 471.121 62 454 62C436.879 62 423 48.1208 423 31C423 13.8792 436.879 0 454 0C471.121 0 485 13.8792 485 31Z" stroke="#4D4D4D" stroke-width="3"/>
<path fillRule="evenodd" clipRule="evenodd" d="M548 31C548 48.1208 534.121 62 517 62C499.879 62 486 48.1208 486 31C486 13.8792 499.879 0 517 0C534.121 0 548 13.8792 548 31Z" stroke="#4D4D4D" stroke-width="3"/>
<path fillRule="evenodd" clipRule="evenodd" d="M610 31C610 48.1208 596.121 62 579 62C561.879 62 548 48.1208 548 31C548 13.8792 561.879 0 579 0C596.121 0 610 13.8792 610 31Z" stroke="#4D4D4D" stroke-width="3"/>
<path fillRule="evenodd" clipRule="evenodd" d="M673 31C673 48.1208 659.121 62 642 62C624.879 62 611 48.1208 611 31C611 13.8792 624.879 0 642 0C659.121 0 673 13.8792 673 31Z" stroke="#4D4D4D" stroke-width="3"/>
<path fillRule="evenodd" clipRule="evenodd" d="M735 31C735 48.1208 721.121 62 704 62C686.879 62 673 48.1208 673 31C673 13.8792 686.879 0 704 0C721.121 0 735 13.8792 735 31Z" stroke="#4D4D4D" stroke-width="3"/>
<path fillRule="evenodd" clipRule="evenodd" d="M798 31C798 48.1208 784.121 62 767 62C749.879 62 736 48.1208 736 31C736 13.8792 749.879 0 767 0C784.121 0 798 13.8792 798 31Z" stroke="#4D4D4D" stroke-width="3"/>
<path fillRule="evenodd" clipRule="evenodd" d="M860 31C860 48.1208 846.121 62 829 62C811.879 62 798 48.1208 798 31C798 13.8792 811.879 0 829 0C846.121 0 860 13.8792 860 31Z" stroke="#4D4D4D" stroke-width="3"/>
<path fillRule="evenodd" clipRule="evenodd" d="M923 31C923 48.1208 909.121 62 892 62C874.879 62 861 48.1208 861 31C861 13.8792 874.879 0 892 0C909.121 0 923 13.8792 923 31Z" stroke="#4D4D4D" stroke-width="3"/>
<path fillRule="evenodd" clipRule="evenodd" d="M985 31C985 48.1208 971.121 62 954 62C936.879 62 923 48.1208 923 31C923 13.8792 936.879 0 954 0C971.121 0 985 13.8792 985 31Z" stroke="#4D4D4D" stroke-width="3"/>
<path fillRule="evenodd" clipRule="evenodd" d="M1048 31C1048 48.1208 1034.12 62 1017 62C999.879 62 986 48.1208 986 31C986 13.8792 999.879 0 1017 0C1034.12 0 1048 13.8792 1048 31Z" stroke="#4D4D4D" stroke-width="3"/>
<path fillRule="evenodd" clipRule="evenodd" d="M1110 31C1110 48.1208 1096.12 62 1079 62C1061.88 62 1048 48.1208 1048 31C1048 13.8792 1061.88 0 1079 0C1096.12 0 1110 13.8792 1110 31Z" stroke="#4D4D4D" stroke-width="3"/>
<path fillRule="evenodd" clipRule="evenodd" d="M1173 31C1173 48.1208 1159.12 62 1142 62C1124.88 62 1111 48.1208 1111 31C1111 13.8792 1124.88 0 1142 0C1159.12 0 1173 13.8792 1173 31Z" stroke="#4D4D4D" stroke-width="3"/>
<path fillRule="evenodd" clipRule="evenodd" d="M1235 31C1235 48.1208 1221.12 62 1204 62C1186.88 62 1173 48.1208 1173 31C1173 13.8792 1186.88 0 1204 0C1221.12 0 1235 13.8792 1235 31Z" stroke="#4D4D4D" stroke-width="3"/>
<path fillRule="evenodd" clipRule="evenodd" d="M1298 31C1298 48.1208 1284.12 62 1267 62C1249.88 62 1236 48.1208 1236 31C1236 13.8792 1249.88 0 1267 0C1284.12 0 1298 13.8792 1298 31Z" stroke="#4D4D4D" stroke-width="3"/>
<path fillRule="evenodd" clipRule="evenodd" d="M1360 31C1360 48.1208 1346.12 62 1329 62C1311.88 62 1298 48.1208 1298 31C1298 13.8792 1311.88 0 1329 0C1346.12 0 1360 13.8792 1360 31Z" stroke="#4D4D4D" stroke-width="3"/>
<path fillRule="evenodd" clipRule="evenodd" d="M1423 31C1423 48.1208 1409.12 62 1392 62C1374.88 62 1361 48.1208 1361 31C1361 13.8792 1374.88 0 1392 0C1409.12 0 1423 13.8792 1423 31Z" stroke="#4D4D4D" stroke-width="3"/>
<path fillRule="evenodd" clipRule="evenodd" d="M1485 31C1485 48.1208 1471.12 62 1454 62C1436.88 62 1423 48.1208 1423 31C1423 13.8792 1436.88 0 1454 0C1471.12 0 1485 13.8792 1485 31Z" stroke="#4D4D4D" stroke-width="3"/>
<path fillRule="evenodd" clipRule="evenodd" d="M1548 31C1548 48.1208 1534.12 62 1517 62C1499.88 62 1486 48.1208 1486 31C1486 13.8792 1499.88 0 1517 0C1534.12 0 1548 13.8792 1548 31Z" stroke="#4D4D4D" stroke-width="3"/>
<path fillRule="evenodd" clipRule="evenodd" d="M48 94.0002C48 111.121 34.1211 125 17 125C-0.121056 125 -14 111.121 -14 94.0002C-14 76.8793 -0.121056 63 17 63C34.1211 63 48 76.8793 48 94.0002Z" stroke="#4D4D4D" stroke-width="3"/>
<path fillRule="evenodd" clipRule="evenodd" d="M110 94.0002C110 111.121 96.1212 125 78.9998 125C61.8793 125 48 111.121 48 94.0002C48 76.8793 61.8793 63 78.9998 63C96.1212 63 110 76.8793 110 94.0002Z" stroke="#4D4D4D" stroke-width="3"/>
<path fillRule="evenodd" clipRule="evenodd" d="M173 94.0002C173 111.121 159.121 125 142 125C124.879 125 111 111.121 111 94.0002C111 76.8793 124.879 63 142 63C159.121 63 173 76.8793 173 94.0002Z" stroke="#4D4D4D" stroke-width="3"/>
<path fillRule="evenodd" clipRule="evenodd" d="M235 94.0002C235 111.121 221.121 125 204 125C186.879 125 173 111.121 173 94.0002C173 76.8793 186.879 63 204 63C221.121 63 235 76.8793 235 94.0002Z" stroke="#4D4D4D" stroke-width="3"/>
<path fillRule="evenodd" clipRule="evenodd" d="M298 94.0002C298 111.121 284.121 125 267 125C249.879 125 236 111.121 236 94.0002C236 76.8793 249.879 63 267 63C284.121 63 298 76.8793 298 94.0002Z" stroke="#4D4D4D" stroke-width="3"/>
<path fillRule="evenodd" clipRule="evenodd" d="M360 94.0002C360 111.121 346.121 125 329 125C311.879 125 298 111.121 298 94.0002C298 76.8793 311.879 63 329 63C346.121 63 360 76.8793 360 94.0002Z" stroke="#4D4D4D" stroke-width="3"/>
<path fillRule="evenodd" clipRule="evenodd" d="M423 94.0002C423 111.121 409.121 125 392 125C374.879 125 361 111.121 361 94.0002C361 76.8793 374.879 63 392 63C409.121 63 423 76.8793 423 94.0002Z" stroke="#4D4D4D" stroke-width="3"/>
<path fillRule="evenodd" clipRule="evenodd" d="M485 94.0002C485 111.121 471.121 125 454 125C436.879 125 423 111.121 423 94.0002C423 76.8793 436.879 63 454 63C471.121 63 485 76.8793 485 94.0002Z" stroke="#4D4D4D" stroke-width="3"/>
<path fillRule="evenodd" clipRule="evenodd" d="M548 94.0002C548 111.121 534.121 125 517 125C499.879 125 486 111.121 486 94.0002C486 76.8793 499.879 63 517 63C534.121 63 548 76.8793 548 94.0002Z" stroke="#4D4D4D" stroke-width="3"/>
<path fillRule="evenodd" clipRule="evenodd" d="M610 94.0002C610 111.121 596.121 125 579 125C561.879 125 548 111.121 548 94.0002C548 76.8793 561.879 63 579 63C596.121 63 610 76.8793 610 94.0002Z" stroke="#4D4D4D" stroke-width="3"/>
<path fillRule="evenodd" clipRule="evenodd" d="M673 94.0002C673 111.121 659.121 125 642 125C624.879 125 611 111.121 611 94.0002C611 76.8793 624.879 63 642 63C659.121 63 673 76.8793 673 94.0002Z" stroke="#4D4D4D" stroke-width="3"/>
<path fillRule="evenodd" clipRule="evenodd" d="M735 94.0002C735 111.121 721.121 125 704 125C686.879 125 673 111.121 673 94.0002C673 76.8793 686.879 63 704 63C721.121 63 735 76.8793 735 94.0002Z" stroke="#4D4D4D" stroke-width="3"/>
<path fillRule="evenodd" clipRule="evenodd" d="M798 94.0002C798 111.121 784.121 125 767 125C749.879 125 736 111.121 736 94.0002C736 76.8793 749.879 63 767 63C784.121 63 798 76.8793 798 94.0002Z" stroke="#4D4D4D" stroke-width="3"/>
<path fillRule="evenodd" clipRule="evenodd" d="M860 94.0002C860 111.121 846.121 125 829 125C811.879 125 798 111.121 798 94.0002C798 76.8793 811.879 63 829 63C846.121 63 860 76.8793 860 94.0002Z" stroke="#4D4D4D" stroke-width="3"/>
<path fillRule="evenodd" clipRule="evenodd" d="M923 94.0002C923 111.121 909.121 125 892 125C874.879 125 861 111.121 861 94.0002C861 76.8793 874.879 63 892 63C909.121 63 923 76.8793 923 94.0002Z" stroke="#4D4D4D" stroke-width="3"/>
<path fillRule="evenodd" clipRule="evenodd" d="M985 94.0002C985 111.121 971.121 125 954 125C936.879 125 923 111.121 923 94.0002C923 76.8793 936.879 63 954 63C971.121 63 985 76.8793 985 94.0002Z" stroke="#4D4D4D" stroke-width="3"/>
<path fillRule="evenodd" clipRule="evenodd" d="M1048 94.0002C1048 111.121 1034.12 125 1017 125C999.879 125 986 111.121 986 94.0002C986 76.8793 999.879 63 1017 63C1034.12 63 1048 76.8793 1048 94.0002Z" stroke="#4D4D4D" stroke-width="3"/>
<path fillRule="evenodd" clipRule="evenodd" d="M1110 94.0002C1110 111.121 1096.12 125 1079 125C1061.88 125 1048 111.121 1048 94.0002C1048 76.8793 1061.88 63 1079 63C1096.12 63 1110 76.8793 1110 94.0002Z" stroke="#4D4D4D" stroke-width="3"/>
<path fillRule="evenodd" clipRule="evenodd" d="M1173 94.0002C1173 111.121 1159.12 125 1142 125C1124.88 125 1111 111.121 1111 94.0002C1111 76.8793 1124.88 63 1142 63C1159.12 63 1173 76.8793 1173 94.0002Z" stroke="#4D4D4D" stroke-width="3"/>
<path fillRule="evenodd" clipRule="evenodd" d="M1235 94.0002C1235 111.121 1221.12 125 1204 125C1186.88 125 1173 111.121 1173 94.0002C1173 76.8793 1186.88 63 1204 63C1221.12 63 1235 76.8793 1235 94.0002Z" stroke="#4D4D4D" stroke-width="3"/>
<path fillRule="evenodd" clipRule="evenodd" d="M1298 94.0002C1298 111.121 1284.12 125 1267 125C1249.88 125 1236 111.121 1236 94.0002C1236 76.8793 1249.88 63 1267 63C1284.12 63 1298 76.8793 1298 94.0002Z" stroke="#4D4D4D" stroke-width="3"/>
<path fillRule="evenodd" clipRule="evenodd" d="M1360 94.0002C1360 111.121 1346.12 125 1329 125C1311.88 125 1298 111.121 1298 94.0002C1298 76.8793 1311.88 63 1329 63C1346.12 63 1360 76.8793 1360 94.0002Z" stroke="#4D4D4D" stroke-width="3"/>
<path fillRule="evenodd" clipRule="evenodd" d="M1423 94.0002C1423 111.121 1409.12 125 1392 125C1374.88 125 1361 111.121 1361 94.0002C1361 76.8793 1374.88 63 1392 63C1409.12 63 1423 76.8793 1423 94.0002Z" stroke="#4D4D4D" stroke-width="3"/>
<path fillRule="evenodd" clipRule="evenodd" d="M1485 94.0002C1485 111.121 1471.12 125 1454 125C1436.88 125 1423 111.121 1423 94.0002C1423 76.8793 1436.88 63 1454 63C1471.12 63 1485 76.8793 1485 94.0002Z" stroke="#4D4D4D" stroke-width="3"/>
<path fillRule="evenodd" clipRule="evenodd" d="M1548 94.0002C1548 111.121 1534.12 125 1517 125C1499.88 125 1486 111.121 1486 94.0002C1486 76.8793 1499.88 63 1517 63C1534.12 63 1548 76.8793 1548 94.0002Z" stroke="#4D4D4D" stroke-width="3"/>
<path fillRule="evenodd" clipRule="evenodd" d="M48 156C48 173.121 34.1211 187 17 187C-0.121056 187 -14 173.121 -14 156C-14 138.879 -0.121056 125 17 125C34.1211 125 48 138.879 48 156Z" stroke="#4D4D4D" stroke-width="3"/>
<path fillRule="evenodd" clipRule="evenodd" d="M110 156C110 173.121 96.1212 187 78.9998 187C61.8793 187 48 173.121 48 156C48 138.879 61.8793 125 78.9998 125C96.1212 125 110 138.879 110 156Z" stroke="#4D4D4D" stroke-width="3"/>
<path fillRule="evenodd" clipRule="evenodd" d="M173 156C173 173.121 159.121 187 142 187C124.879 187 111 173.121 111 156C111 138.879 124.879 125 142 125C159.121 125 173 138.879 173 156Z" stroke="#4D4D4D" stroke-width="3"/>
<path fillRule="evenodd" clipRule="evenodd" d="M235 156C235 173.121 221.121 187 204 187C186.879 187 173 173.121 173 156C173 138.879 186.879 125 204 125C221.121 125 235 138.879 235 156Z" stroke="#4D4D4D" stroke-width="3"/>
<path fillRule="evenodd" clipRule="evenodd" d="M298 156C298 173.121 284.121 187 267 187C249.879 187 236 173.121 236 156C236 138.879 249.879 125 267 125C284.121 125 298 138.879 298 156Z" stroke="#4D4D4D" stroke-width="3"/>
<path fillRule="evenodd" clipRule="evenodd" d="M360 156C360 173.121 346.121 187 329 187C311.879 187 298 173.121 298 156C298 138.879 311.879 125 329 125C346.121 125 360 138.879 360 156Z" stroke="#4D4D4D" stroke-width="3"/>
<path fillRule="evenodd" clipRule="evenodd" d="M423 156C423 173.121 409.121 187 392 187C374.879 187 361 173.121 361 156C361 138.879 374.879 125 392 125C409.121 125 423 138.879 423 156Z" stroke="#4D4D4D" stroke-width="3"/>
<path fillRule="evenodd" clipRule="evenodd" d="M485 156C485 173.121 471.121 187 454 187C436.879 187 423 173.121 423 156C423 138.879 436.879 125 454 125C471.121 125 485 138.879 485 156Z" stroke="#4D4D4D" stroke-width="3"/>
<path fillRule="evenodd" clipRule="evenodd" d="M548 156C548 173.121 534.121 187 517 187C499.879 187 486 173.121 486 156C486 138.879 499.879 125 517 125C534.121 125 548 138.879 548 156Z" stroke="#4D4D4D" stroke-width="3"/>
<path fillRule="evenodd" clipRule="evenodd" d="M610 156C610 173.121 596.121 187 579 187C561.879 187 548 173.121 548 156C548 138.879 561.879 125 579 125C596.121 125 610 138.879 610 156Z" stroke="#4D4D4D" stroke-width="3"/>
<path fillRule="evenodd" clipRule="evenodd" d="M673 156C673 173.121 659.121 187 642 187C624.879 187 611 173.121 611 156C611 138.879 624.879 125 642 125C659.121 125 673 138.879 673 156Z" stroke="#4D4D4D" stroke-width="3"/>
<path fillRule="evenodd" clipRule="evenodd" d="M735 156C735 173.121 721.121 187 704 187C686.879 187 673 173.121 673 156C673 138.879 686.879 125 704 125C721.121 125 735 138.879 735 156Z" stroke="#4D4D4D" stroke-width="3"/>
<path fillRule="evenodd" clipRule="evenodd" d="M798 156C798 173.121 784.121 187 767 187C749.879 187 736 173.121 736 156C736 138.879 749.879 125 767 125C784.121 125 798 138.879 798 156Z" stroke="#4D4D4D" stroke-width="3"/>
<path fillRule="evenodd" clipRule="evenodd" d="M860 156C860 173.121 846.121 187 829 187C811.879 187 798 173.121 798 156C798 138.879 811.879 125 829 125C846.121 125 860 138.879 860 156Z" stroke="#4D4D4D" stroke-width="3"/>
<path fillRule="evenodd" clipRule="evenodd" d="M923 156C923 173.121 909.121 187 892 187C874.879 187 861 173.121 861 156C861 138.879 874.879 125 892 125C909.121 125 923 138.879 923 156Z" stroke="#4D4D4D" stroke-width="3"/>
<path fillRule="evenodd" clipRule="evenodd" d="M985 156C985 173.121 971.121 187 954 187C936.879 187 923 173.121 923 156C923 138.879 936.879 125 954 125C971.121 125 985 138.879 985 156Z" stroke="#4D4D4D" stroke-width="3"/>
<path fillRule="evenodd" clipRule="evenodd" d="M1048 156C1048 173.121 1034.12 187 1017 187C999.879 187 986 173.121 986 156C986 138.879 999.879 125 1017 125C1034.12 125 1048 138.879 1048 156Z" stroke="#4D4D4D" stroke-width="3"/>
<path fillRule="evenodd" clipRule="evenodd" d="M1110 156C1110 173.121 1096.12 187 1079 187C1061.88 187 1048 173.121 1048 156C1048 138.879 1061.88 125 1079 125C1096.12 125 1110 138.879 1110 156Z" stroke="#4D4D4D" stroke-width="3"/>
<path fillRule="evenodd" clipRule="evenodd" d="M1173 156C1173 173.121 1159.12 187 1142 187C1124.88 187 1111 173.121 1111 156C1111 138.879 1124.88 125 1142 125C1159.12 125 1173 138.879 1173 156Z" stroke="#4D4D4D" stroke-width="3"/>
<path fillRule="evenodd" clipRule="evenodd" d="M1235 156C1235 173.121 1221.12 187 1204 187C1186.88 187 1173 173.121 1173 156C1173 138.879 1186.88 125 1204 125C1221.12 125 1235 138.879 1235 156Z" stroke="#4D4D4D" stroke-width="3"/>
<path fillRule="evenodd" clipRule="evenodd" d="M1298 156C1298 173.121 1284.12 187 1267 187C1249.88 187 1236 173.121 1236 156C1236 138.879 1249.88 125 1267 125C1284.12 125 1298 138.879 1298 156Z" stroke="#4D4D4D" stroke-width="3"/>
<path fillRule="evenodd" clipRule="evenodd" d="M1360 156C1360 173.121 1346.12 187 1329 187C1311.88 187 1298 173.121 1298 156C1298 138.879 1311.88 125 1329 125C1346.12 125 1360 138.879 1360 156Z" stroke="#4D4D4D" stroke-width="3"/>
<path fillRule="evenodd" clipRule="evenodd" d="M1423 156C1423 173.121 1409.12 187 1392 187C1374.88 187 1361 173.121 1361 156C1361 138.879 1374.88 125 1392 125C1409.12 125 1423 138.879 1423 156Z" stroke="#4D4D4D" stroke-width="3"/>
<path fillRule="evenodd" clipRule="evenodd" d="M1485 156C1485 173.121 1471.12 187 1454 187C1436.88 187 1423 173.121 1423 156C1423 138.879 1436.88 125 1454 125C1471.12 125 1485 138.879 1485 156Z" stroke="#4D4D4D" stroke-width="3"/>
<path fillRule="evenodd" clipRule="evenodd" d="M1548 156C1548 173.121 1534.12 187 1517 187C1499.88 187 1486 173.121 1486 156C1486 138.879 1499.88 125 1517 125C1534.12 125 1548 138.879 1548 156Z" stroke="#4D4D4D" stroke-width="3"/>
<path fillRule="evenodd" clipRule="evenodd" d="M48 219C48 236.121 34.1211 250 17 250C-0.121056 250 -14 236.121 -14 219C-14 201.879 -0.121056 188 17 188C34.1211 188 48 201.879 48 219Z" stroke="#4D4D4D" stroke-width="3"/>
<path fillRule="evenodd" clipRule="evenodd" d="M110 219C110 236.121 96.1212 250 78.9998 250C61.8793 250 48 236.121 48 219C48 201.879 61.8793 188 78.9998 188C96.1212 188 110 201.879 110 219Z" stroke="#4D4D4D" stroke-width="3"/>
<path fillRule="evenodd" clipRule="evenodd" d="M173 219C173 236.121 159.121 250 142 250C124.879 250 111 236.121 111 219C111 201.879 124.879 188 142 188C159.121 188 173 201.879 173 219Z" stroke="#4D4D4D" stroke-width="3"/>
<path fillRule="evenodd" clipRule="evenodd" d="M235 219C235 236.121 221.121 250 204 250C186.879 250 173 236.121 173 219C173 201.879 186.879 188 204 188C221.121 188 235 201.879 235 219Z" stroke="#4D4D4D" stroke-width="3"/>
<path fillRule="evenodd" clipRule="evenodd" d="M298 219C298 236.121 284.121 250 267 250C249.879 250 236 236.121 236 219C236 201.879 249.879 188 267 188C284.121 188 298 201.879 298 219Z" stroke="#4D4D4D" stroke-width="3"/>
<path fillRule="evenodd" clipRule="evenodd" d="M360 219C360 236.121 346.121 250 329 250C311.879 250 298 236.121 298 219C298 201.879 311.879 188 329 188C346.121 188 360 201.879 360 219Z" stroke="#4D4D4D" stroke-width="3"/>
<path fillRule="evenodd" clipRule="evenodd" d="M423 219C423 236.121 409.121 250 392 250C374.879 250 361 236.121 361 219C361 201.879 374.879 188 392 188C409.121 188 423 201.879 423 219Z" stroke="#4D4D4D" stroke-width="3"/>
<path fillRule="evenodd" clipRule="evenodd" d="M485 219C485 236.121 471.121 250 454 250C436.879 250 423 236.121 423 219C423 201.879 436.879 188 454 188C471.121 188 485 201.879 485 219Z" stroke="#4D4D4D" stroke-width="3"/>
<path fillRule="evenodd" clipRule="evenodd" d="M548 219C548 236.121 534.121 250 517 250C499.879 250 486 236.121 486 219C486 201.879 499.879 188 517 188C534.121 188 548 201.879 548 219Z" stroke="#4D4D4D" stroke-width="3"/>
<path fillRule="evenodd" clipRule="evenodd" d="M610 219C610 236.121 596.121 250 579 250C561.879 250 548 236.121 548 219C548 201.879 561.879 188 579 188C596.121 188 610 201.879 610 219Z" stroke="#4D4D4D" stroke-width="3"/>
<path fillRule="evenodd" clipRule="evenodd" d="M673 219C673 236.121 659.121 250 642 250C624.879 250 611 236.121 611 219C611 201.879 624.879 188 642 188C659.121 188 673 201.879 673 219Z" stroke="#4D4D4D" stroke-width="3"/>
<path fillRule="evenodd" clipRule="evenodd" d="M735 219C735 236.121 721.121 250 704 250C686.879 250 673 236.121 673 219C673 201.879 686.879 188 704 188C721.121 188 735 201.879 735 219Z" stroke="#4D4D4D" stroke-width="3"/>
<path fillRule="evenodd" clipRule="evenodd" d="M798 219C798 236.121 784.121 250 767 250C749.879 250 736 236.121 736 219C736 201.879 749.879 188 767 188C784.121 188 798 201.879 798 219Z" stroke="#4D4D4D" stroke-width="3"/>
<path fillRule="evenodd" clipRule="evenodd" d="M860 219C860 236.121 846.121 250 829 250C811.879 250 798 236.121 798 219C798 201.879 811.879 188 829 188C846.121 188 860 201.879 860 219Z" stroke="#4D4D4D" stroke-width="3"/>
<path fillRule="evenodd" clipRule="evenodd" d="M923 219C923 236.121 909.121 250 892 250C874.879 250 861 236.121 861 219C861 201.879 874.879 188 892 188C909.121 188 923 201.879 923 219Z" stroke="#4D4D4D" stroke-width="3"/>
<path fillRule="evenodd" clipRule="evenodd" d="M985 219C985 236.121 971.121 250 954 250C936.879 250 923 236.121 923 219C923 201.879 936.879 188 954 188C971.121 188 985 201.879 985 219Z" stroke="#4D4D4D" stroke-width="3"/>
<path fillRule="evenodd" clipRule="evenodd" d="M1048 219C1048 236.121 1034.12 250 1017 250C999.879 250 986 236.121 986 219C986 201.879 999.879 188 1017 188C1034.12 188 1048 201.879 1048 219Z" stroke="#4D4D4D" stroke-width="3"/>
<path fillRule="evenodd" clipRule="evenodd" d="M1110 219C1110 236.121 1096.12 250 1079 250C1061.88 250 1048 236.121 1048 219C1048 201.879 1061.88 188 1079 188C1096.12 188 1110 201.879 1110 219Z" stroke="#4D4D4D" stroke-width="3"/>
<path fillRule="evenodd" clipRule="evenodd" d="M1173 219C1173 236.121 1159.12 250 1142 250C1124.88 250 1111 236.121 1111 219C1111 201.879 1124.88 188 1142 188C1159.12 188 1173 201.879 1173 219Z" stroke="#4D4D4D" stroke-width="3"/>
<path fillRule="evenodd" clipRule="evenodd" d="M1235 219C1235 236.121 1221.12 250 1204 250C1186.88 250 1173 236.121 1173 219C1173 201.879 1186.88 188 1204 188C1221.12 188 1235 201.879 1235 219Z" stroke="#4D4D4D" stroke-width="3"/>
<path fillRule="evenodd" clipRule="evenodd" d="M1298 219C1298 236.121 1284.12 250 1267 250C1249.88 250 1236 236.121 1236 219C1236 201.879 1249.88 188 1267 188C1284.12 188 1298 201.879 1298 219Z" stroke="#4D4D4D" stroke-width="3"/>
<path fillRule="evenodd" clipRule="evenodd" d="M1360 219C1360 236.121 1346.12 250 1329 250C1311.88 250 1298 236.121 1298 219C1298 201.879 1311.88 188 1329 188C1346.12 188 1360 201.879 1360 219Z" stroke="#4D4D4D" stroke-width="3"/>
<path fillRule="evenodd" clipRule="evenodd" d="M1423 219C1423 236.121 1409.12 250 1392 250C1374.88 250 1361 236.121 1361 219C1361 201.879 1374.88 188 1392 188C1409.12 188 1423 201.879 1423 219Z" stroke="#4D4D4D" stroke-width="3"/>
<path fillRule="evenodd" clipRule="evenodd" d="M1485 219C1485 236.121 1471.12 250 1454 250C1436.88 250 1423 236.121 1423 219C1423 201.879 1436.88 188 1454 188C1471.12 188 1485 201.879 1485 219Z" stroke="#4D4D4D" stroke-width="3"/>
<path fillRule="evenodd" clipRule="evenodd" d="M1548 219C1548 236.121 1534.12 250 1517 250C1499.88 250 1486 236.121 1486 219C1486 201.879 1499.88 188 1517 188C1534.12 188 1548 201.879 1548 219Z" stroke="#4D4D4D" stroke-width="3"/>
<path fillRule="evenodd" clipRule="evenodd" d="M7 63C7 74.5981 -2.40234 84 -13.9995 84C-25.5977 84 -35 74.5981 -35 63C-35 51.4019 -25.5977 42 -13.9995 42C-2.40234 42 7 51.4019 7 63Z" stroke="#4D4D4D"/>
<path fillRule="evenodd" clipRule="evenodd" d="M69 63C69 74.5981 59.5977 84 48 84C36.4023 84 27 74.5981 27 63C27 51.4019 36.4023 42 48 42C59.5977 42 69 51.4019 69 63Z" stroke="#4D4D4D"/>
<path fillRule="evenodd" clipRule="evenodd" d="M132 63C132 74.5981 122.598 84 111 84C99.4023 84 90 74.5981 90 63C90 51.4019 99.4023 42 111 42C122.598 42 132 51.4019 132 63Z" stroke="#4D4D4D"/>
<path fillRule="evenodd" clipRule="evenodd" d="M194 63C194 74.5981 184.598 84 173 84C161.402 84 152 74.5981 152 63C152 51.4019 161.402 42 173 42C184.598 42 194 51.4019 194 63Z" stroke="#4D4D4D"/>
<path fillRule="evenodd" clipRule="evenodd" d="M257 63C257 74.5981 247.598 84 236 84C224.402 84 215 74.5981 215 63C215 51.4019 224.402 42 236 42C247.598 42 257 51.4019 257 63Z" stroke="#4D4D4D"/>
<path fillRule="evenodd" clipRule="evenodd" d="M319 63C319 74.5981 309.598 84 298 84C286.402 84 277 74.5981 277 63C277 51.4019 286.402 42 298 42C309.598 42 319 51.4019 319 63Z" stroke="#4D4D4D"/>
<path fillRule="evenodd" clipRule="evenodd" d="M382 63C382 74.5981 372.598 84 361 84C349.402 84 340 74.5981 340 63C340 51.4019 349.402 42 361 42C372.598 42 382 51.4019 382 63Z" stroke="#4D4D4D"/>
<path fillRule="evenodd" clipRule="evenodd" d="M444 63C444 74.5981 434.598 84 423 84C411.402 84 402 74.5981 402 63C402 51.4019 411.402 42 423 42C434.598 42 444 51.4019 444 63Z" stroke="#4D4D4D"/>
<path fillRule="evenodd" clipRule="evenodd" d="M507 63C507 74.5981 497.598 84 486 84C474.402 84 465 74.5981 465 63C465 51.4019 474.402 42 486 42C497.598 42 507 51.4019 507 63Z" stroke="#4D4D4D"/>
<path fillRule="evenodd" clipRule="evenodd" d="M569 63C569 74.5981 559.598 84 548 84C536.402 84 527 74.5981 527 63C527 51.4019 536.402 42 548 42C559.598 42 569 51.4019 569 63Z" stroke="#4D4D4D"/>
<path fillRule="evenodd" clipRule="evenodd" d="M632 63C632 74.5981 622.598 84 611 84C599.402 84 590 74.5981 590 63C590 51.4019 599.402 42 611 42C622.598 42 632 51.4019 632 63Z" stroke="#4D4D4D"/>
<path fillRule="evenodd" clipRule="evenodd" d="M694 63C694 74.5981 684.598 84 673 84C661.402 84 652 74.5981 652 63C652 51.4019 661.402 42 673 42C684.598 42 694 51.4019 694 63Z" stroke="#4D4D4D"/>
<path fillRule="evenodd" clipRule="evenodd" d="M757 63C757 74.5981 747.598 84 736 84C724.402 84 715 74.5981 715 63C715 51.4019 724.402 42 736 42C747.598 42 757 51.4019 757 63Z" stroke="#4D4D4D"/>
<path fillRule="evenodd" clipRule="evenodd" d="M819 63C819 74.5981 809.598 84 798 84C786.402 84 777 74.5981 777 63C777 51.4019 786.402 42 798 42C809.598 42 819 51.4019 819 63Z" stroke="#4D4D4D"/>
<path fillRule="evenodd" clipRule="evenodd" d="M881 63C881 74.5981 871.598 84 860 84C848.402 84 839 74.5981 839 63C839 51.4019 848.402 42 860 42C871.598 42 881 51.4019 881 63Z" stroke="#4D4D4D"/>
<path fillRule="evenodd" clipRule="evenodd" d="M944 63C944 74.5981 934.598 84 923 84C911.402 84 902 74.5981 902 63C902 51.4019 911.402 42 923 42C934.598 42 944 51.4019 944 63Z" stroke="#4D4D4D"/>
<path fillRule="evenodd" clipRule="evenodd" d="M1006 63C1006 74.5981 996.598 84 985 84C973.402 84 964 74.5981 964 63C964 51.4019 973.402 42 985 42C996.598 42 1006 51.4019 1006 63Z" stroke="#4D4D4D"/>
<path fillRule="evenodd" clipRule="evenodd" d="M1069 63C1069 74.5981 1059.6 84 1048 84C1036.4 84 1027 74.5981 1027 63C1027 51.4019 1036.4 42 1048 42C1059.6 42 1069 51.4019 1069 63Z" stroke="#4D4D4D"/>
<path fillRule="evenodd" clipRule="evenodd" d="M1131 63C1131 74.5981 1121.6 84 1110 84C1098.4 84 1089 74.5981 1089 63C1089 51.4019 1098.4 42 1110 42C1121.6 42 1131 51.4019 1131 63Z" stroke="#4D4D4D"/>
<path fillRule="evenodd" clipRule="evenodd" d="M1194 63C1194 74.5981 1184.6 84 1173 84C1161.4 84 1152 74.5981 1152 63C1152 51.4019 1161.4 42 1173 42C1184.6 42 1194 51.4019 1194 63Z" stroke="#4D4D4D"/>
<path fillRule="evenodd" clipRule="evenodd" d="M1256 63C1256 74.5981 1246.6 84 1235 84C1223.4 84 1214 74.5981 1214 63C1214 51.4019 1223.4 42 1235 42C1246.6 42 1256 51.4019 1256 63Z" stroke="#4D4D4D"/>
<path fillRule="evenodd" clipRule="evenodd" d="M1319 63C1319 74.5981 1309.6 84 1298 84C1286.4 84 1277 74.5981 1277 63C1277 51.4019 1286.4 42 1298 42C1309.6 42 1319 51.4019 1319 63Z" stroke="#4D4D4D"/>
<path fillRule="evenodd" clipRule="evenodd" d="M1381 63C1381 74.5981 1371.6 84 1360 84C1348.4 84 1339 74.5981 1339 63C1339 51.4019 1348.4 42 1360 42C1371.6 42 1381 51.4019 1381 63Z" stroke="#4D4D4D"/>
<path fillRule="evenodd" clipRule="evenodd" d="M1444 63C1444 74.5981 1434.6 84 1423 84C1411.4 84 1402 74.5981 1402 63C1402 51.4019 1411.4 42 1423 42C1434.6 42 1444 51.4019 1444 63Z" stroke="#4D4D4D"/>
<path fillRule="evenodd" clipRule="evenodd" d="M1506 63C1506 74.5981 1496.6 84 1485 84C1473.4 84 1464 74.5981 1464 63C1464 51.4019 1473.4 42 1485 42C1496.6 42 1506 51.4019 1506 63Z" stroke="#4D4D4D"/>
<path fillRule="evenodd" clipRule="evenodd" d="M7 125C7 136.598 -2.40234 146 -13.9995 146C-25.5977 146 -35 136.598 -35 125C-35 113.402 -25.5977 104 -13.9995 104C-2.40234 104 7 113.402 7 125Z" stroke="#4D4D4D"/>
<path fillRule="evenodd" clipRule="evenodd" d="M69 125C69 136.598 59.5977 146 48 146C36.4023 146 27 136.598 27 125C27 113.402 36.4023 104 48 104C59.5977 104 69 113.402 69 125Z" stroke="#4D4D4D"/>
<path fillRule="evenodd" clipRule="evenodd" d="M132 125C132 136.598 122.598 146 111 146C99.4023 146 90 136.598 90 125C90 113.402 99.4023 104 111 104C122.598 104 132 113.402 132 125Z" stroke="#4D4D4D"/>
<path fillRule="evenodd" clipRule="evenodd" d="M194 125C194 136.598 184.598 146 173 146C161.402 146 152 136.598 152 125C152 113.402 161.402 104 173 104C184.598 104 194 113.402 194 125Z" stroke="#4D4D4D"/>
<path fillRule="evenodd" clipRule="evenodd" d="M257 125C257 136.598 247.598 146 236 146C224.402 146 215 136.598 215 125C215 113.402 224.402 104 236 104C247.598 104 257 113.402 257 125Z" stroke="#4D4D4D"/>
<path fillRule="evenodd" clipRule="evenodd" d="M319 125C319 136.598 309.598 146 298 146C286.402 146 277 136.598 277 125C277 113.402 286.402 104 298 104C309.598 104 319 113.402 319 125Z" stroke="#4D4D4D"/>
<path fillRule="evenodd" clipRule="evenodd" d="M382 125C382 136.598 372.598 146 361 146C349.402 146 340 136.598 340 125C340 113.402 349.402 104 361 104C372.598 104 382 113.402 382 125Z" stroke="#4D4D4D"/>
<path fillRule="evenodd" clipRule="evenodd" d="M444 125C444 136.598 434.598 146 423 146C411.402 146 402 136.598 402 125C402 113.402 411.402 104 423 104C434.598 104 444 113.402 444 125Z" stroke="#4D4D4D"/>
<path fillRule="evenodd" clipRule="evenodd" d="M507 125C507 136.598 497.598 146 486 146C474.402 146 465 136.598 465 125C465 113.402 474.402 104 486 104C497.598 104 507 113.402 507 125Z" stroke="#4D4D4D"/>
<path fillRule="evenodd" clipRule="evenodd" d="M569 125C569 136.598 559.598 146 548 146C536.402 146 527 136.598 527 125C527 113.402 536.402 104 548 104C559.598 104 569 113.402 569 125Z" stroke="#4D4D4D"/>
<path fillRule="evenodd" clipRule="evenodd" d="M632 125C632 136.598 622.598 146 611 146C599.402 146 590 136.598 590 125C590 113.402 599.402 104 611 104C622.598 104 632 113.402 632 125Z" stroke="#4D4D4D"/>
<path fillRule="evenodd" clipRule="evenodd" d="M694 125C694 136.598 684.598 146 673 146C661.402 146 652 136.598 652 125C652 113.402 661.402 104 673 104C684.598 104 694 113.402 694 125Z" stroke="#4D4D4D"/>
<path fillRule="evenodd" clipRule="evenodd" d="M757 125C757 136.598 747.598 146 736 146C724.402 146 715 136.598 715 125C715 113.402 724.402 104 736 104C747.598 104 757 113.402 757 125Z" stroke="#4D4D4D"/>
<path fillRule="evenodd" clipRule="evenodd" d="M819 125C819 136.598 809.598 146 798 146C786.402 146 777 136.598 777 125C777 113.402 786.402 104 798 104C809.598 104 819 113.402 819 125Z" stroke="#4D4D4D"/>
<path fillRule="evenodd" clipRule="evenodd" d="M881 125C881 136.598 871.598 146 860 146C848.402 146 839 136.598 839 125C839 113.402 848.402 104 860 104C871.598 104 881 113.402 881 125Z" stroke="#4D4D4D"/>
<path fillRule="evenodd" clipRule="evenodd" d="M944 125C944 136.598 934.598 146 923 146C911.402 146 902 136.598 902 125C902 113.402 911.402 104 923 104C934.598 104 944 113.402 944 125Z" stroke="#4D4D4D"/>
<path fillRule="evenodd" clipRule="evenodd" d="M1006 125C1006 136.598 996.598 146 985 146C973.402 146 964 136.598 964 125C964 113.402 973.402 104 985 104C996.598 104 1006 113.402 1006 125Z" stroke="#4D4D4D"/>
<path fillRule="evenodd" clipRule="evenodd" d="M1069 125C1069 136.598 1059.6 146 1048 146C1036.4 146 1027 136.598 1027 125C1027 113.402 1036.4 104 1048 104C1059.6 104 1069 113.402 1069 125Z" stroke="#4D4D4D"/>
<path fillRule="evenodd" clipRule="evenodd" d="M1131 125C1131 136.598 1121.6 146 1110 146C1098.4 146 1089 136.598 1089 125C1089 113.402 1098.4 104 1110 104C1121.6 104 1131 113.402 1131 125Z" stroke="#4D4D4D"/>
<path fillRule="evenodd" clipRule="evenodd" d="M1194 125C1194 136.598 1184.6 146 1173 146C1161.4 146 1152 136.598 1152 125C1152 113.402 1161.4 104 1173 104C1184.6 104 1194 113.402 1194 125Z" stroke="#4D4D4D"/>
<path fillRule="evenodd" clipRule="evenodd" d="M1256 125C1256 136.598 1246.6 146 1235 146C1223.4 146 1214 136.598 1214 125C1214 113.402 1223.4 104 1235 104C1246.6 104 1256 113.402 1256 125Z" stroke="#4D4D4D"/>
<path fillRule="evenodd" clipRule="evenodd" d="M1319 125C1319 136.598 1309.6 146 1298 146C1286.4 146 1277 136.598 1277 125C1277 113.402 1286.4 104 1298 104C1309.6 104 1319 113.402 1319 125Z" stroke="#4D4D4D"/>
<path fillRule="evenodd" clipRule="evenodd" d="M1381 125C1381 136.598 1371.6 146 1360 146C1348.4 146 1339 136.598 1339 125C1339 113.402 1348.4 104 1360 104C1371.6 104 1381 113.402 1381 125Z" stroke="#4D4D4D"/>
<path fillRule="evenodd" clipRule="evenodd" d="M1444 125C1444 136.598 1434.6 146 1423 146C1411.4 146 1402 136.598 1402 125C1402 113.402 1411.4 104 1423 104C1434.6 104 1444 113.402 1444 125Z" stroke="#4D4D4D"/>
<path fillRule="evenodd" clipRule="evenodd" d="M1506 125C1506 136.598 1496.6 146 1485 146C1473.4 146 1464 136.598 1464 125C1464 113.402 1473.4 104 1485 104C1496.6 104 1506 113.402 1506 125Z" stroke="#4D4D4D"/>
<path fillRule="evenodd" clipRule="evenodd" d="M7 188C7 199.598 -2.40234 209 -13.9995 209C-25.5977 209 -35 199.598 -35 188C-35 176.402 -25.5977 167 -13.9995 167C-2.40234 167 7 176.402 7 188Z" stroke="#4D4D4D"/>
<path fillRule="evenodd" clipRule="evenodd" d="M69 188C69 199.598 59.5977 209 48 209C36.4023 209 27 199.598 27 188C27 176.402 36.4023 167 48 167C59.5977 167 69 176.402 69 188Z" stroke="#4D4D4D"/>
<path fillRule="evenodd" clipRule="evenodd" d="M132 188C132 199.598 122.598 209 111 209C99.4023 209 90 199.598 90 188C90 176.402 99.4023 167 111 167C122.598 167 132 176.402 132 188Z" stroke="#4D4D4D"/>
<path fillRule="evenodd" clipRule="evenodd" d="M194 188C194 199.598 184.598 209 173 209C161.402 209 152 199.598 152 188C152 176.402 161.402 167 173 167C184.598 167 194 176.402 194 188Z" stroke="#4D4D4D"/>
<path fillRule="evenodd" clipRule="evenodd" d="M257 188C257 199.598 247.598 209 236 209C224.402 209 215 199.598 215 188C215 176.402 224.402 167 236 167C247.598 167 257 176.402 257 188Z" stroke="#4D4D4D"/>
<path fillRule="evenodd" clipRule="evenodd" d="M319 188C319 199.598 309.598 209 298 209C286.402 209 277 199.598 277 188C277 176.402 286.402 167 298 167C309.598 167 319 176.402 319 188Z" stroke="#4D4D4D"/>
<path fillRule="evenodd" clipRule="evenodd" d="M382 188C382 199.598 372.598 209 361 209C349.402 209 340 199.598 340 188C340 176.402 349.402 167 361 167C372.598 167 382 176.402 382 188Z" stroke="#4D4D4D"/>
<path fillRule="evenodd" clipRule="evenodd" d="M444 188C444 199.598 434.598 209 423 209C411.402 209 402 199.598 402 188C402 176.402 411.402 167 423 167C434.598 167 444 176.402 444 188Z" stroke="#4D4D4D"/>
<path fillRule="evenodd" clipRule="evenodd" d="M507 188C507 199.598 497.598 209 486 209C474.402 209 465 199.598 465 188C465 176.402 474.402 167 486 167C497.598 167 507 176.402 507 188Z" stroke="#4D4D4D"/>
<path fillRule="evenodd" clipRule="evenodd" d="M569 188C569 199.598 559.598 209 548 209C536.402 209 527 199.598 527 188C527 176.402 536.402 167 548 167C559.598 167 569 176.402 569 188Z" stroke="#4D4D4D"/>
<path fillRule="evenodd" clipRule="evenodd" d="M632 188C632 199.598 622.598 209 611 209C599.402 209 590 199.598 590 188C590 176.402 599.402 167 611 167C622.598 167 632 176.402 632 188Z" stroke="#4D4D4D"/>
<path fillRule="evenodd" clipRule="evenodd" d="M694 188C694 199.598 684.598 209 673 209C661.402 209 652 199.598 652 188C652 176.402 661.402 167 673 167C684.598 167 694 176.402 694 188Z" stroke="#4D4D4D"/>
<path fillRule="evenodd" clipRule="evenodd" d="M757 188C757 199.598 747.598 209 736 209C724.402 209 715 199.598 715 188C715 176.402 724.402 167 736 167C747.598 167 757 176.402 757 188Z" stroke="#4D4D4D"/>
<path fillRule="evenodd" clipRule="evenodd" d="M819 188C819 199.598 809.598 209 798 209C786.402 209 777 199.598 777 188C777 176.402 786.402 167 798 167C809.598 167 819 176.402 819 188Z" stroke="#4D4D4D"/>
<path fillRule="evenodd" clipRule="evenodd" d="M881 188C881 199.598 871.598 209 860 209C848.402 209 839 199.598 839 188C839 176.402 848.402 167 860 167C871.598 167 881 176.402 881 188Z" stroke="#4D4D4D"/>
<path fillRule="evenodd" clipRule="evenodd" d="M944 188C944 199.598 934.598 209 923 209C911.402 209 902 199.598 902 188C902 176.402 911.402 167 923 167C934.598 167 944 176.402 944 188Z" stroke="#4D4D4D"/>
<path fillRule="evenodd" clipRule="evenodd" d="M1006 188C1006 199.598 996.598 209 985 209C973.402 209 964 199.598 964 188C964 176.402 973.402 167 985 167C996.598 167 1006 176.402 1006 188Z" stroke="#4D4D4D"/>
<path fillRule="evenodd" clipRule="evenodd" d="M1069 188C1069 199.598 1059.6 209 1048 209C1036.4 209 1027 199.598 1027 188C1027 176.402 1036.4 167 1048 167C1059.6 167 1069 176.402 1069 188Z" stroke="#4D4D4D"/>
<path fillRule="evenodd" clipRule="evenodd" d="M1131 188C1131 199.598 1121.6 209 1110 209C1098.4 209 1089 199.598 1089 188C1089 176.402 1098.4 167 1110 167C1121.6 167 1131 176.402 1131 188Z" stroke="#4D4D4D"/>
<path fillRule="evenodd" clipRule="evenodd" d="M1194 188C1194 199.598 1184.6 209 1173 209C1161.4 209 1152 199.598 1152 188C1152 176.402 1161.4 167 1173 167C1184.6 167 1194 176.402 1194 188Z" stroke="#4D4D4D"/>
<path fillRule="evenodd" clipRule="evenodd" d="M1256 188C1256 199.598 1246.6 209 1235 209C1223.4 209 1214 199.598 1214 188C1214 176.402 1223.4 167 1235 167C1246.6 167 1256 176.402 1256 188Z" stroke="#4D4D4D"/>
<path fillRule="evenodd" clipRule="evenodd" d="M1319 188C1319 199.598 1309.6 209 1298 209C1286.4 209 1277 199.598 1277 188C1277 176.402 1286.4 167 1298 167C1309.6 167 1319 176.402 1319 188Z" stroke="#4D4D4D"/>
<path fillRule="evenodd" clipRule="evenodd" d="M1381 188C1381 199.598 1371.6 209 1360 209C1348.4 209 1339 199.598 1339 188C1339 176.402 1348.4 167 1360 167C1371.6 167 1381 176.402 1381 188Z" stroke="#4D4D4D"/>
<path fillRule="evenodd" clipRule="evenodd" d="M1444 188C1444 199.598 1434.6 209 1423 209C1411.4 209 1402 199.598 1402 188C1402 176.402 1411.4 167 1423 167C1434.6 167 1444 176.402 1444 188Z" stroke="#4D4D4D"/>
<path fillRule="evenodd" clipRule="evenodd" d="M1506 188C1506 199.598 1496.6 209 1485 209C1473.4 209 1464 199.598 1464 188C1464 176.402 1473.4 167 1485 167C1496.6 167 1506 176.402 1506 188Z" stroke="#4D4D4D"/>
<path fillRule="evenodd" clipRule="evenodd" d="M7 250C7 261.598 -2.40234 271 -13.9995 271C-25.5977 271 -35 261.598 -35 250C-35 238.402 -25.5977 229 -13.9995 229C-2.40234 229 7 238.402 7 250Z" stroke="#4D4D4D"/>
<path fillRule="evenodd" clipRule="evenodd" d="M69 250C69 261.598 59.5977 271 48 271C36.4023 271 27 261.598 27 250C27 238.402 36.4023 229 48 229C59.5977 229 69 238.402 69 250Z" stroke="#4D4D4D"/>
<path fillRule="evenodd" clipRule="evenodd" d="M132 250C132 261.598 122.598 271 111 271C99.4023 271 90 261.598 90 250C90 238.402 99.4023 229 111 229C122.598 229 132 238.402 132 250Z" stroke="#4D4D4D"/>
<path fillRule="evenodd" clipRule="evenodd" d="M194 250C194 261.598 184.598 271 173 271C161.402 271 152 261.598 152 250C152 238.402 161.402 229 173 229C184.598 229 194 238.402 194 250Z" stroke="#4D4D4D"/>
<path fillRule="evenodd" clipRule="evenodd" d="M257 250C257 261.598 247.598 271 236 271C224.402 271 215 261.598 215 250C215 238.402 224.402 229 236 229C247.598 229 257 238.402 257 250Z" stroke="#4D4D4D"/>
<path fillRule="evenodd" clipRule="evenodd" d="M319 250C319 261.598 309.598 271 298 271C286.402 271 277 261.598 277 250C277 238.402 286.402 229 298 229C309.598 229 319 238.402 319 250Z" stroke="#4D4D4D"/>
<path fillRule="evenodd" clipRule="evenodd" d="M382 250C382 261.598 372.598 271 361 271C349.402 271 340 261.598 340 250C340 238.402 349.402 229 361 229C372.598 229 382 238.402 382 250Z" stroke="#4D4D4D"/>
<path fillRule="evenodd" clipRule="evenodd" d="M444 250C444 261.598 434.598 271 423 271C411.402 271 402 261.598 402 250C402 238.402 411.402 229 423 229C434.598 229 444 238.402 444 250Z" stroke="#4D4D4D"/>
<path fillRule="evenodd" clipRule="evenodd" d="M507 250C507 261.598 497.598 271 486 271C474.402 271 465 261.598 465 250C465 238.402 474.402 229 486 229C497.598 229 507 238.402 507 250Z" stroke="#4D4D4D"/>
<path fillRule="evenodd" clipRule="evenodd" d="M569 250C569 261.598 559.598 271 548 271C536.402 271 527 261.598 527 250C527 238.402 536.402 229 548 229C559.598 229 569 238.402 569 250Z" stroke="#4D4D4D"/>
<path fillRule="evenodd" clipRule="evenodd" d="M632 250C632 261.598 622.598 271 611 271C599.402 271 590 261.598 590 250C590 238.402 599.402 229 611 229C622.598 229 632 238.402 632 250Z" stroke="#4D4D4D"/>
<path fillRule="evenodd" clipRule="evenodd" d="M694 250C694 261.598 684.598 271 673 271C661.402 271 652 261.598 652 250C652 238.402 661.402 229 673 229C684.598 229 694 238.402 694 250Z" stroke="#4D4D4D"/>
<path fillRule="evenodd" clipRule="evenodd" d="M757 250C757 261.598 747.598 271 736 271C724.402 271 715 261.598 715 250C715 238.402 724.402 229 736 229C747.598 229 757 238.402 757 250Z" stroke="#4D4D4D"/>
<path fillRule="evenodd" clipRule="evenodd" d="M819 250C819 261.598 809.598 271 798 271C786.402 271 777 261.598 777 250C777 238.402 786.402 229 798 229C809.598 229 819 238.402 819 250Z" stroke="#4D4D4D"/>
<path fillRule="evenodd" clipRule="evenodd" d="M881 250C881 261.598 871.598 271 860 271C848.402 271 839 261.598 839 250C839 238.402 848.402 229 860 229C871.598 229 881 238.402 881 250Z" stroke="#4D4D4D"/>
<path fillRule="evenodd" clipRule="evenodd" d="M944 250C944 261.598 934.598 271 923 271C911.402 271 902 261.598 902 250C902 238.402 911.402 229 923 229C934.598 229 944 238.402 944 250Z" stroke="#4D4D4D"/>
<path fillRule="evenodd" clipRule="evenodd" d="M1006 250C1006 261.598 996.598 271 985 271C973.402 271 964 261.598 964 250C964 238.402 973.402 229 985 229C996.598 229 1006 238.402 1006 250Z" stroke="#4D4D4D"/>
<path fillRule="evenodd" clipRule="evenodd" d="M1069 250C1069 261.598 1059.6 271 1048 271C1036.4 271 1027 261.598 1027 250C1027 238.402 1036.4 229 1048 229C1059.6 229 1069 238.402 1069 250Z" stroke="#4D4D4D"/>
<path fillRule="evenodd" clipRule="evenodd" d="M1131 250C1131 261.598 1121.6 271 1110 271C1098.4 271 1089 261.598 1089 250C1089 238.402 1098.4 229 1110 229C1121.6 229 1131 238.402 1131 250Z" stroke="#4D4D4D"/>
<path fillRule="evenodd" clipRule="evenodd" d="M1194 250C1194 261.598 1184.6 271 1173 271C1161.4 271 1152 261.598 1152 250C1152 238.402 1161.4 229 1173 229C1184.6 229 1194 238.402 1194 250Z" stroke="#4D4D4D"/>
<path fillRule="evenodd" clipRule="evenodd" d="M1256 250C1256 261.598 1246.6 271 1235 271C1223.4 271 1214 261.598 1214 250C1214 238.402 1223.4 229 1235 229C1246.6 229 1256 238.402 1256 250Z" stroke="#4D4D4D"/>
<path fillRule="evenodd" clipRule="evenodd" d="M1319 250C1319 261.598 1309.6 271 1298 271C1286.4 271 1277 261.598 1277 250C1277 238.402 1286.4 229 1298 229C1309.6 229 1319 238.402 1319 250Z" stroke="#4D4D4D"/>
<path fillRule="evenodd" clipRule="evenodd" d="M1381 250C1381 261.598 1371.6 271 1360 271C1348.4 271 1339 261.598 1339 250C1339 238.402 1348.4 229 1360 229C1371.6 229 1381 238.402 1381 250Z" stroke="#4D4D4D"/>
<path fillRule="evenodd" clipRule="evenodd" d="M1444 250C1444 261.598 1434.6 271 1423 271C1411.4 271 1402 261.598 1402 250C1402 238.402 1411.4 229 1423 229C1434.6 229 1444 238.402 1444 250Z" stroke="#4D4D4D"/>
<path fillRule="evenodd" clipRule="evenodd" d="M1506 250C1506 261.598 1496.6 271 1485 271C1473.4 271 1464 261.598 1464 250C1464 238.402 1473.4 229 1485 229C1496.6 229 1506 238.402 1506 250Z" stroke="#4D4D4D"/>
</g>
</svg>
