<svg width="16" height="17" viewBox="0 0 16 17" fill="none" xmlns="http://www.w3.org/2000/svg">
<path d="M15.68 8.18484C15.68 7.52706 15.6266 7.04706 15.5111 6.54929H7.99996V9.51815H12.4088C12.32 10.256 11.84 11.3671 10.7733 12.1137L10.7583 12.2131L13.1332 14.0529L13.2977 14.0693C14.8088 12.6737 15.68 10.6204 15.68 8.18484Z" fill="#4285F4"/>
<path d="M8.00005 16.0071C10.16 16.0071 11.9733 15.2959 13.2977 14.0693L10.7733 12.1137C10.0977 12.5848 9.19113 12.9137 8.00005 12.9137C5.8845 12.9137 4.08896 11.5182 3.4489 9.5893L3.35508 9.59726L0.885643 11.5084L0.853349 11.5982C2.16889 14.2115 4.87113 16.0071 8.00005 16.0071Z" fill="#34A853"/>
<path d="M3.4489 9.5893C3.28001 9.09153 3.18223 8.55817 3.18223 8.00709C3.18223 7.45594 3.27997 6.92263 3.43997 6.42486L3.4355 6.31884L0.935122 4.37703L0.853314 4.41594C0.311115 5.5004 0 6.7182 0 8.00709C0 9.29598 0.31115 10.5137 0.853349 11.5982L3.4489 9.5893Z" fill="#FBBC05"/>
<path d="M8.00005 3.1004C9.50225 3.1004 10.5156 3.74928 11.0934 4.29154L13.3511 2.08708C11.9645 0.798196 10.16 0.00708008 8.00005 0.00708008C4.87113 0.00708008 2.16886 1.80262 0.853314 4.41594L3.43997 6.42486C4.08892 4.49597 5.8845 3.1004 8.00005 3.1004Z" fill="#EB4335"/>
</svg>
