<svg id="Layer_1" data-name="Layer 1" xmlns="http://www.w3.org/2000/svg" xmlns:xlink="http://www.w3.org/1999/xlink" viewBox="0 0 440.86 440.86"><defs><style>.cls-1{fill:none;}.cls-2{fill:#3a2cba;}.cls-3{fill:url(#linear-gradient);}.cls-4{clip-path:url(#clip-path);}.cls-5{fill:url(#linear-gradient-2);}.cls-6{fill:url(#linear-gradient-3);}.cls-7{fill:url(#linear-gradient-4);}.cls-8{clip-path:url(#clip-path-2);}.cls-9{fill:#4201dc;}</style><linearGradient id="linear-gradient" x1="35.92" y1="220.43" x2="404.94" y2="220.43" gradientUnits="userSpaceOnUse"><stop offset="0" stopColor="#071d89"/><stop offset="0.18" stopColor="#092692"/><stop offset="0.47" stopColor="#0e3dac"/><stop offset="0.84" stopColor="#1762d5"/><stop offset="0.99" stopColor="#1b73e8"/></linearGradient><clipPath id="clip-path"><polygon class="cls-1" points="220.49 289.04 95.55 289.04 158.02 180.84 220.49 72.63 282.96 180.84 345.43 289.04 220.49 289.04"/></clipPath><linearGradient id="linear-gradient-2" x1="-81.18" y1="171.92" x2="15.76" y2="3.62" gradientUnits="userSpaceOnUse"><stop offset="0" stopColor="#009ff4"/><stop offset="0.19" stopColor="#03a8f5"/><stop offset="0.51" stopColor="#0ac2f9"/><stop offset="0.92" stopColor="#15ebfe"/><stop offset="0.99" stopColor="#17f3ff"/></linearGradient><linearGradient id="linear-gradient-3" x1="417.56" y1="-10.49" x2="511.13" y2="156.47" xlink:href="#linear-gradient-2"/><linearGradient id="linear-gradient-4" x1="314.89" y1="501.77" x2="145.25" y2="501.77" xlink:href="#linear-gradient-2"/><clipPath id="clip-path-2"><path class="cls-1" d="M43.25,42V401.59H400.3V42Zm20,270.84L219.83,42.64,376.4,312.8Z"/></clipPath></defs><title>icon only</title><path class="cls-2" d="M219.27,240.79a211.36,211.36,0,0,1,52.5,6.59,211.12,211.12,0,0,1-51.61-89,210.85,210.85,0,0,1-51.07,88.46A211.62,211.62,0,0,1,219.27,240.79Z"/><path class="cls-3" d="M220.43,404.94c-101.74,0-184.51-82.77-184.51-184.51S118.69,35.92,220.43,35.92s184.51,82.77,184.51,184.51S322.17,404.94,220.43,404.94Zm0-344.87C132,60.07,60.07,132,60.07,220.43S132,380.79,220.43,380.79s160.36-71.94,160.36-160.36S308.85,60.07,220.43,60.07Z"/><g class="cls-4"><circle class="cls-5" cx="-25.32" cy="74.94" r="243.38"/><circle class="cls-6" cx="466.2" cy="76.31" r="243.38"/><circle class="cls-7" cx="219.75" cy="501.77" r="243.38"/></g><g class="cls-8"><path class="cls-9" d="M220.48,340.24A119.76,119.76,0,1,1,340.24,220.48,119.9,119.9,0,0,1,220.48,340.24Zm0-234.15A114.39,114.39,0,1,0,334.87,220.48,114.51,114.51,0,0,0,220.48,106.09Z"/></g></svg>