<svg width="28" height="36" viewBox="0 0 28 36" fill="none" xmlns="http://www.w3.org/2000/svg">
<path d="M21.7045 20.5194L18.8955 3.36636C18.6335 1.81936 17.1675 0.778361 15.6195 1.04036C14.0725 1.30336 13.0315 2.77036 13.2945 4.31736L14.9515 14.0514" stroke="#2B406E" strokeWidth="2" strokeLinecap="round" strokeLinejoin="round"/>
<path d="M22.3555 26.9974L26.4785 11.3224C26.8175 10.0604 26.0695 8.76141 24.8075 8.42041L24.1665 8.31641" stroke="#2B406E" strokeWidth="2" strokeLinecap="round" strokeLinejoin="round"/>
<path d="M22.5444 25.2888L23.1734 5.62876C23.2154 4.32176 22.1934 3.23076 20.8834 3.18676C20.2524 3.16676 19.6724 3.39476 19.2344 3.78276" stroke="#2B406E" strokeWidth="2" strokeLinecap="round" strokeLinejoin="round"/>
<mask id="mask0_1619_3144" style="mask-type:alpha" maskUnits="userSpaceOnUse" x="0" y="12" width="24" height="24">
<path fillRule="evenodd" clipRule="evenodd" d="M0.5 12.6191H23.61V35.73H0.5V12.6191Z" fill="white"/>
</mask>
<g mask="url(#mask0_1619_3144)">
<path fillRule="evenodd" clipRule="evenodd" d="M12.055 35.7301C5.683 35.7301 0.5 30.5461 0.5 24.1751C0.5 22.2511 0.982 20.3461 1.896 18.6651C2.519 17.5161 3.956 17.0901 5.106 17.7151C6.255 18.3391 6.68 19.7761 6.056 20.9251C5.519 21.9151 5.235 23.0391 5.235 24.1751C5.235 27.9361 8.294 30.9951 12.055 30.9951C15.816 30.9951 18.875 27.9361 18.875 24.1751C18.875 20.4141 15.816 17.3541 12.055 17.3541C10.986 17.3541 9.964 17.5931 9.016 18.0661C7.846 18.6501 6.425 18.1751 5.841 17.0041C5.257 15.8341 5.733 14.4131 6.903 13.8291C8.513 13.0261 10.246 12.6191 12.055 12.6191C18.427 12.6191 23.61 17.8031 23.61 24.1751C23.61 30.5461 18.427 35.7301 12.055 35.7301Z" fill="#3095FF"/>
</g>
</svg>
