<svg width="14" height="18" viewBox="0 0 14 18" fill="none" xmlns="http://www.w3.org/2000/svg">
<path fill-rule="evenodd" clip-rule="evenodd" d="M1.50602e-07 17.4375V2.24999C1.50602e-07 1.65326 0.237052 1.08096 0.659008 0.659008C1.08096 0.237052 1.65326 0 2.24999 0L11.25 0C11.8467 0 12.419 0.237052 12.841 0.659008C13.2629 1.08096 13.5 1.65326 13.5 2.24999V17.4375C13.5 17.5351 13.4747 17.6312 13.4264 17.716C13.3781 17.8009 13.3085 17.8718 13.2245 17.9216C13.1405 17.9715 13.0449 17.9986 12.9472 18.0003C12.8496 18.002 12.7532 17.9782 12.6675 17.9313L6.74998 14.7026L0.832498 17.9313C0.746806 17.9782 0.650382 18.002 0.552717 18.0003C0.455051 17.9986 0.359512 17.9715 0.275503 17.9216C0.191493 17.8718 0.12191 17.8009 0.0736025 17.716C0.025295 17.6312 -7.13179e-05 17.5351 1.50602e-07 17.4375ZM6.92998 4.61249C6.91354 4.57875 6.88794 4.55032 6.85611 4.53043C6.82429 4.51054 6.78751 4.49999 6.74998 4.49999C6.71245 4.49999 6.67568 4.51054 6.64385 4.53043C6.61202 4.55032 6.58643 4.57875 6.56998 4.61249L5.85673 6.05811C5.84246 6.08735 5.82127 6.11267 5.795 6.13189C5.76873 6.1511 5.73818 6.16361 5.70599 6.16836L4.10849 6.40011C4.07171 6.40569 4.03722 6.4214 4.00887 6.44549C3.98053 6.46957 3.95945 6.50108 3.948 6.53647C3.93655 6.57186 3.93519 6.60974 3.94406 6.64586C3.95294 6.68199 3.9717 6.71492 3.99824 6.74098L5.15249 7.86711C5.19974 7.91323 5.22111 7.9796 5.20986 8.04485L4.93874 9.6356C4.93262 9.67233 4.93687 9.71004 4.951 9.74449C4.96514 9.77894 4.9886 9.80877 5.01875 9.83062C5.0489 9.85248 5.08455 9.86549 5.12168 9.8682C5.15882 9.87091 5.19598 9.86322 5.22899 9.84597L6.65773 9.09448C6.68638 9.07949 6.71822 9.07167 6.75055 9.07167C6.78287 9.07167 6.81471 9.07949 6.84336 9.09448L8.2721 9.84597C8.30507 9.86291 8.3421 9.87036 8.37905 9.8675C8.41601 9.86464 8.45144 9.85157 8.48141 9.82977C8.51138 9.80796 8.53471 9.77826 8.5488 9.74398C8.56289 9.7097 8.5672 9.67218 8.56123 9.6356L8.28898 8.04373C8.28324 8.01176 8.28536 7.97888 8.29516 7.94791C8.30496 7.91694 8.32214 7.88882 8.34523 7.86598L9.50173 6.73986C9.52827 6.7138 9.54703 6.68086 9.5559 6.64474C9.56477 6.60861 9.56341 6.57073 9.55196 6.53534C9.54052 6.49995 9.51944 6.46845 9.49109 6.44436C9.46275 6.42028 9.42825 6.40456 9.39148 6.39898L7.79398 6.16723C7.76179 6.16249 7.73123 6.14997 7.70496 6.13076C7.6787 6.11155 7.65751 6.08623 7.64323 6.05698L6.92998 4.61249Z" fill="#A8A8A8"/>
</svg>
