<svg width="23" height="18" viewBox="0 0 23 18" fill="none" xmlns="http://www.w3.org/2000/svg">
<path d="M19.8424 4.47643C19.857 4.67336 19.857 4.86916 19.857 5.06496C19.857 11.0572 15.2962 17.962 6.96109 17.962C4.39316 17.962 2.00753 17.2182 0 15.9263C0.364596 15.968 0.715689 15.9826 1.09491 15.9826C3.13507 15.9875 5.11745 15.3053 6.72253 14.046C5.77663 14.0288 4.85968 13.7168 4.09973 13.1533C3.33977 12.5898 2.77474 11.8031 2.48353 10.903C2.76373 10.9446 3.04505 10.9728 3.33988 10.9728C3.74611 10.9728 4.1546 10.9165 4.53382 10.8186C3.50728 10.6113 2.58422 10.0549 1.92158 9.24396C1.25894 8.433 0.897642 7.41756 0.899112 6.37031V6.31404C1.5034 6.65051 2.20446 6.86094 2.94715 6.88907C2.32496 6.47562 1.81479 5.91459 1.46214 5.25603C1.1095 4.59747 0.925347 3.86186 0.92612 3.11482C0.92612 2.2731 1.15005 1.50115 1.54278 0.828219C2.68174 2.22924 4.10227 3.3754 5.71239 4.19247C7.3225 5.00955 9.08628 5.47931 10.8895 5.57135C10.8197 5.23376 10.777 4.88379 10.777 4.5327C10.7767 3.93737 10.8937 3.34782 11.1214 2.79776C11.3491 2.24769 11.6829 1.7479 12.1039 1.32694C12.5249 0.905978 13.0247 0.572114 13.5747 0.344429C14.1248 0.116745 14.7143 -0.000295255 15.3097 5.59344e-07C16.615 5.59344e-07 17.7932 0.546895 18.6214 1.43138C19.6362 1.23515 20.6093 0.864704 21.4977 0.336464C21.1594 1.38391 20.4509 2.27209 19.5048 2.83462C20.4048 2.73197 21.2844 2.49529 22.1143 2.13244C21.4944 3.03616 20.7263 3.82865 19.8424 4.47643Z" fill="#A8A8A8"/>
</svg>
