<svg width="19" height="18" viewBox="0 0 19 18" fill="none" xmlns="http://www.w3.org/2000/svg">
<path d="M7.20566 14.2794L6.29441 15.185C5.91266 15.5607 5.39849 15.7713 4.86284 15.7713C4.3272 15.7713 3.81302 15.5607 3.43128 15.185C3.24515 15.0007 3.0974 14.7813 2.99657 14.5395C2.89573 14.2978 2.84382 14.0384 2.84382 13.7765C2.84382 13.5145 2.89573 13.2552 2.99657 13.0134C3.0974 12.7717 3.24515 12.5523 3.43128 12.368L6.78378 9.0436C7.47791 8.35397 8.78516 7.33922 9.73804 8.28422C9.84058 8.39356 9.9641 8.48112 10.1012 8.54168C10.2384 8.60224 10.3863 8.63455 10.5362 8.63669C10.6861 8.63883 10.8348 8.61074 10.9736 8.55412C11.1124 8.49749 11.2384 8.41349 11.344 8.30711C11.4496 8.20074 11.5327 8.07418 11.5884 7.93498C11.644 7.79578 11.671 7.6468 11.6678 7.49693C11.6646 7.34706 11.6312 7.19938 11.5697 7.06269C11.5082 6.926 11.4197 6.8031 11.3097 6.70134C9.69191 5.09484 7.29791 5.39184 5.21328 7.46072L1.86077 10.7862C1.46465 11.1768 1.15038 11.6424 0.936353 12.1558C0.722322 12.6692 0.612827 13.2202 0.614272 13.7765C0.61289 14.3327 0.722414 14.8837 0.936441 15.3971C1.15047 15.9105 1.4647 16.3762 1.86077 16.7667C2.65918 17.5587 3.73885 18.002 4.8634 17.9997C5.95128 17.9997 7.03916 17.5891 7.86603 16.7667L8.77841 15.8611C8.88246 15.7582 8.96516 15.6358 9.02178 15.5008C9.0784 15.3659 9.10781 15.2211 9.10833 15.0748C9.10886 14.9284 9.08048 14.7834 9.02483 14.6481C8.96917 14.5128 8.88735 14.3897 8.78404 14.2861C8.5752 14.0767 8.29198 13.9585 7.99624 13.9572C7.7005 13.9559 7.41628 14.0717 7.20566 14.2794ZM17.3667 1.35983C15.6263 -0.365921 13.194 -0.459296 11.5853 1.13821L10.4502 2.26546C10.2404 2.47372 10.122 2.75678 10.1209 3.05236C10.1199 3.34794 10.2363 3.63183 10.4445 3.84159C10.6528 4.05134 10.9359 4.16977 11.2314 4.17083C11.527 4.17188 11.8109 4.05547 12.0207 3.84721L13.1569 2.72108C13.9894 1.89308 15.0818 2.23621 15.7962 2.94271C16.1742 3.31959 16.3834 3.81909 16.3834 4.35121C16.3834 4.88334 16.1742 5.38284 15.7962 5.75859L12.2187 9.30685C10.5829 10.928 9.81566 10.1686 9.48829 9.84347C9.38443 9.74035 9.26128 9.6587 9.12586 9.60317C8.99044 9.54765 8.84542 9.51934 8.69906 9.51986C8.5527 9.52038 8.40788 9.54972 8.27286 9.60622C8.13785 9.66271 8.01528 9.74524 7.91216 9.8491C7.80904 9.95296 7.72738 10.0761 7.67186 10.2115C7.61633 10.3469 7.58802 10.492 7.58855 10.6383C7.58907 10.7847 7.61841 10.9295 7.6749 11.0645C7.73139 11.1995 7.81393 11.3221 7.91778 11.4252C8.66929 12.17 9.52654 12.539 10.4243 12.539C11.5234 12.539 12.6855 11.9855 13.7914 10.8886L17.3689 7.34147C17.7642 6.95035 18.0778 6.4846 18.2916 5.97128C18.5054 5.45796 18.6151 4.90728 18.6143 4.35121C18.6153 3.79475 18.5055 3.24365 18.2913 2.73006C18.0771 2.21647 17.7628 1.75067 17.3667 1.35983Z" fill="#A8A8A8"/>
</svg>
