<svg width="27" height="32" viewBox="0 0 27 32" fill="none" xmlns="http://www.w3.org/2000/svg">
<path d="M21.0004 25.7849L5.44336 15.2279L21.0004 5.67188" stroke="#2B406E" strokeWidth="2" strokeLinecap="round" strokeLinejoin="round"/>
<path fillRule="evenodd" clipRule="evenodd" d="M10.5 15.2285C10.5 17.7135 8.485 19.7285 6 19.7285C3.515 19.7285 1.5 17.7135 1.5 15.2285C1.5 12.7435 3.515 10.7285 6 10.7285C8.485 10.7285 10.5 12.7435 10.5 15.2285Z" fill="#3295FF"/>
<path fillRule="evenodd" clipRule="evenodd" d="M10.5 15.2285C10.5 17.7135 8.485 19.7285 6 19.7285C3.515 19.7285 1.5 17.7135 1.5 15.2285C1.5 12.7435 3.515 10.7285 6 10.7285C8.485 10.7285 10.5 12.7435 10.5 15.2285Z" stroke="#2B406E" strokeWidth="2" strokeLinecap="round" strokeLinejoin="round"/>
<path fillRule="evenodd" clipRule="evenodd" d="M25.5684 5.5C25.5684 7.985 23.5534 10 21.0684 10C18.5834 10 16.5684 7.985 16.5684 5.5C16.5684 3.015 18.5834 1 21.0684 1C23.5534 1 25.5684 3.015 25.5684 5.5Z" stroke="#3095FF" strokeWidth="2" strokeLinecap="round" strokeLinejoin="round"/>
<path fillRule="evenodd" clipRule="evenodd" d="M25.4316 25.9551C25.4316 28.4401 23.4166 30.4551 20.9316 30.4551C18.4466 30.4551 16.4316 28.4401 16.4316 25.9551C16.4316 23.4701 18.4466 21.4551 20.9316 21.4551C23.4166 21.4551 25.4316 23.4701 25.4316 25.9551Z" fill="white"/>
<path fillRule="evenodd" clipRule="evenodd" d="M25.4316 25.9551C25.4316 28.4401 23.4166 30.4551 20.9316 30.4551C18.4466 30.4551 16.4316 28.4401 16.4316 25.9551C16.4316 23.4701 18.4466 21.4551 20.9316 21.4551C23.4166 21.4551 25.4316 23.4701 25.4316 25.9551Z" stroke="#2B406E" strokeWidth="2" strokeLinecap="round" strokeLinejoin="round"/>
</svg>
