<svg width="17" height="14" viewBox="0 0 17 14" fill="none" xmlns="http://www.w3.org/2000/svg">
<path d="M14.625 0.00708008H1.625C0.73125 0.00708008 0.00812499 0.73833 0.00812499 1.63208L0 11.3821C0 12.2758 0.73125 13.0071 1.625 13.0071H14.625C15.5188 13.0071 16.25 12.2758 16.25 11.3821V1.63208C16.25 0.73833 15.5188 0.00708008 14.625 0.00708008ZM13.8125 11.3821H2.4375C1.99063 11.3821 1.625 11.0165 1.625 10.5696V3.25708L7.26375 6.78333C7.79187 7.11646 8.45813 7.11646 8.98625 6.78333L14.625 3.25708V10.5696C14.625 11.0165 14.2594 11.3821 13.8125 11.3821ZM8.125 5.69458L1.625 1.63208H14.625L8.125 5.69458Z" fill="black"/>
</svg>
