<svg width="13" height="14" viewBox="0 0 13 14" fill="none" xmlns="http://www.w3.org/2000/svg">
<path d="M5.85 8.95342H7.15V10.2534H5.85V8.95342ZM5.85 3.75342H7.15V7.65342H5.85V3.75342ZM6.4935 0.503418C2.9055 0.503418 0 3.41542 0 7.00342C0 10.5914 2.9055 13.5034 6.4935 13.5034C10.088 13.5034 13 10.5914 13 7.00342C13 3.41542 10.088 0.503418 6.4935 0.503418ZM6.5 12.2034C3.627 12.2034 1.3 9.87642 1.3 7.00342C1.3 4.13042 3.627 1.80342 6.5 1.80342C9.373 1.80342 11.7 4.13042 11.7 7.00342C11.7 9.87642 9.373 12.2034 6.5 12.2034Z" fill="#EB4335"/>
</svg>
