<svg id="Layer_1" data-name="Layer 1" xmlns="http://www.w3.org/2000/svg" xmlns:xlink="http://www.w3.org/1999/xlink" viewBox="0 0 1133.44 418.38"><defs><style>.cls-1{fill:none;}.cls-2{fill:url(#linear-gradient);}.cls-3{fill:url(#linear-gradient-2);}.cls-4{fill:url(#linear-gradient-3);}.cls-5{fill:url(#linear-gradient-4);}.cls-6{fill:url(#linear-gradient-5);}.cls-7{fill:url(#linear-gradient-6);}.cls-8{fill:url(#linear-gradient-7);}.cls-9{fill:url(#linear-gradient-8);}.cls-10{fill:url(#linear-gradient-9);}.cls-11{fill:url(#linear-gradient-10);}.cls-12{fill:#fff;}.cls-13{fill:#3a2cba;}.cls-14{fill:url(#linear-gradient-11);}.cls-15{clip-path:url(#clip-path);}.cls-16{fill:url(#linear-gradient-12);}.cls-17{fill:url(#linear-gradient-13);}.cls-18{fill:url(#linear-gradient-14);}.cls-19{clip-path:url(#clip-path-2);}.cls-20{fill:#4201dc;}</style><linearGradient id="linear-gradient" x1="410.78" y1="157.7" x2="415.73" y2="284.88" gradientUnits="userSpaceOnUse"><stop offset="0" stopColor="#0055f4"/><stop offset="0.21" stopColor="#035ef5"/><stop offset="0.56" stopColor="#0b78f9"/><stop offset="1" stopColor="#17a0ff"/></linearGradient><linearGradient id="linear-gradient-2" x1="482.02" y1="154.92" x2="486.98" y2="282.11" xlink:href="#linear-gradient"/><linearGradient id="linear-gradient-3" x1="526.86" y1="153.17" x2="531.82" y2="280.36" xlink:href="#linear-gradient"/><linearGradient id="linear-gradient-4" x1="589.79" y1="150.72" x2="594.75" y2="277.91" xlink:href="#linear-gradient"/><linearGradient id="linear-gradient-5" x1="668.39" y1="147.66" x2="673.35" y2="274.85" xlink:href="#linear-gradient"/><linearGradient id="linear-gradient-6" x1="731.77" y1="145.19" x2="736.72" y2="272.38" xlink:href="#linear-gradient"/><linearGradient id="linear-gradient-7" x1="770.49" y1="143.68" x2="775.44" y2="270.87" xlink:href="#linear-gradient"/><linearGradient id="linear-gradient-8" x1="827.28" y1="141.47" x2="832.23" y2="268.66" xlink:href="#linear-gradient"/><linearGradient id="linear-gradient-9" x1="910.63" y1="138.22" x2="915.58" y2="265.41" xlink:href="#linear-gradient"/><linearGradient id="linear-gradient-10" x1="991.1" y1="135.09" x2="996.06" y2="262.27" xlink:href="#linear-gradient"/><linearGradient id="linear-gradient-11" x1="105.82" y1="209.19" x2="338.86" y2="209.19" gradientUnits="userSpaceOnUse"><stop offset="0" stopColor="#071d89"/><stop offset="0.18" stopColor="#092692"/><stop offset="0.47" stopColor="#0e3dac"/><stop offset="0.84" stopColor="#1762d5"/><stop offset="0.99" stopColor="#1b73e8"/></linearGradient><clipPath id="clip-path"><polygon class="cls-1" points="222.38 252.52 143.47 252.52 182.93 184.19 222.38 115.85 261.83 184.19 301.28 252.52 222.38 252.52"/></clipPath><linearGradient id="linear-gradient-12" x1="31.86" y1="178.55" x2="93.08" y2="72.27" gradientUnits="userSpaceOnUse"><stop offset="0" stopColor="#009ff4"/><stop offset="0.19" stopColor="#03a8f5"/><stop offset="0.51" stopColor="#0ac2f9"/><stop offset="0.92" stopColor="#15ebfe"/><stop offset="0.99" stopColor="#17f3ff"/></linearGradient><linearGradient id="linear-gradient-13" x1="346.83" y1="63.36" x2="405.92" y2="168.8" xlink:href="#linear-gradient-12"/><linearGradient id="linear-gradient-14" x1="281.99" y1="386.86" x2="174.86" y2="386.86" xlink:href="#linear-gradient-12"/><clipPath id="clip-path-2"><path class="cls-1" d="M110.45,96.48V323.6H335.93V96.48Zm12.64,171L222,96.92l98.88,170.6Z"/></clipPath></defs><title>vertical</title><path class="cls-2" d="M422.79,154,465.26,262.7h-16L437.4,230h-46L379.25,262.7H364.48L406.8,154Zm10,63.78L414.72,167.1h-.31L396,217.79Z"/><path class="cls-3" d="M504.39,184v11.41H488.7v48.87a13.84,13.84,0,0,0,.39,3.66,3.75,3.75,0,0,0,1.44,2.13,6.34,6.34,0,0,0,3,1,43.68,43.68,0,0,0,4.95.23h5.94V262.7h-9.9a46.16,46.16,0,0,1-8.6-.68,12.63,12.63,0,0,1-5.79-2.51,10.78,10.78,0,0,1-3.27-5.18,29.86,29.86,0,0,1-1.07-8.83V195.41H462.37V184h13.39V160.4H488.7V184Z"/><path class="cls-4" d="M549.29,184v11.41H533.61v48.87a14.34,14.34,0,0,0,.38,3.66,3.82,3.82,0,0,0,1.45,2.13,6.34,6.34,0,0,0,3,1,43.68,43.68,0,0,0,5,.23h5.93V262.7H539.4a46.16,46.16,0,0,1-8.6-.68,12.63,12.63,0,0,1-5.79-2.51,10.78,10.78,0,0,1-3.27-5.18,29.86,29.86,0,0,1-1.07-8.83V195.41H507.28V184h13.39V160.4h12.94V184Z"/><path class="cls-5" d="M616.28,257.68q-8.84,6.7-22.23,6.7a40.46,40.46,0,0,1-16.37-3.05A32.17,32.17,0,0,1,566,252.81,36.11,36.11,0,0,1,559,239.72a63.17,63.17,0,0,1-2.66-16.6A47.3,47.3,0,0,1,559,206.68a39.13,39.13,0,0,1,7.68-12.94,35.1,35.1,0,0,1,11.73-8.53,35.91,35.91,0,0,1,14.84-3q10.5,0,17.43,4.34a34.37,34.37,0,0,1,11.11,11,43.74,43.74,0,0,1,5.79,14.61,62.58,62.58,0,0,1,1.29,15.07H570a31.08,31.08,0,0,0,1.21,9.82,22.26,22.26,0,0,0,4.42,8.22,21.76,21.76,0,0,0,7.76,5.71,26.84,26.84,0,0,0,11.12,2.13q8.22,0,13.47-3.8t6.93-11.57H627.7Q625.11,251,616.28,257.68Zm-3.12-50.54a22.23,22.23,0,0,0-4.72-7.08,22.48,22.48,0,0,0-7-4.72,22.05,22.05,0,0,0-8.9-1.75,22.49,22.49,0,0,0-9.06,1.75,21,21,0,0,0-6.93,4.79,22.89,22.89,0,0,0-4.56,7.08,26.8,26.8,0,0,0-2,8.6h45.21A26.56,26.56,0,0,0,613.16,207.14Z"/><path class="cls-6" d="M651.44,184v12.48h.31q8.07-14.31,25.57-14.31a34.16,34.16,0,0,1,12.94,2.13,21.27,21.27,0,0,1,8.38,5.94,22.07,22.07,0,0,1,4.49,9.06,48.8,48.8,0,0,1,1.29,11.64V262.7H691.48V209.42q0-7.3-4.26-11.57t-11.72-4.26a26.53,26.53,0,0,0-10.28,1.82,19.36,19.36,0,0,0-7.23,5.18,22.22,22.22,0,0,0-4.34,7.84,31.75,31.75,0,0,0-1.45,9.82V262.7H639.26V184Z"/><path class="cls-7" d="M754.51,184v11.41H738.83v48.87a14.34,14.34,0,0,0,.38,3.66,3.72,3.72,0,0,0,1.45,2.13,6.25,6.25,0,0,0,3,1,43.68,43.68,0,0,0,5,.23h5.94V262.7h-9.9A46.31,46.31,0,0,1,736,262a12.64,12.64,0,0,1-5.78-2.51,10.79,10.79,0,0,1-3.28-5.18,29.9,29.9,0,0,1-1.06-8.83V195.41h-13.4V184h13.4V160.4h12.94V184Z"/><path class="cls-8" d="M766.53,169.84V154h13v15.83Zm13,14.16v78.7h-13V184Z"/><path class="cls-9" d="M794.7,207.21a36.7,36.7,0,0,1,7.3-13.09,34.49,34.49,0,0,1,12-8.75,44,44,0,0,1,33,0,34.64,34.64,0,0,1,12,8.75,36.87,36.87,0,0,1,7.31,13.09,52.58,52.58,0,0,1,2.43,16.22,51.78,51.78,0,0,1-2.43,16.13,36.82,36.82,0,0,1-7.31,13,33.72,33.72,0,0,1-12,8.68,45.08,45.08,0,0,1-33,0,33.58,33.58,0,0,1-12-8.68,36.64,36.64,0,0,1-7.3-13,51.49,51.49,0,0,1-2.44-16.13A52.29,52.29,0,0,1,794.7,207.21Zm13.16,28.93a26.52,26.52,0,0,0,5.26,9.29,22.65,22.65,0,0,0,7.84,5.7,23.85,23.85,0,0,0,19,0,22.83,22.83,0,0,0,7.84-5.7,26.66,26.66,0,0,0,5.25-9.29,43.5,43.5,0,0,0,0-25.43,27.55,27.55,0,0,0-5.25-9.36,22.55,22.55,0,0,0-7.84-5.78,23.85,23.85,0,0,0-19,0,22.37,22.37,0,0,0-7.84,5.78,27.4,27.4,0,0,0-5.26,9.36,43.5,43.5,0,0,0,0,25.43Z"/><path class="cls-10" d="M933.84,262.7V250.22h-.3A26.39,26.39,0,0,1,923,261,31.37,31.37,0,0,1,908,264.38,35.31,35.31,0,0,1,895,262.32a20.59,20.59,0,0,1-8.37-5.86,22,22,0,0,1-4.49-9.06,48.28,48.28,0,0,1-1.3-11.64V184H893.8v53.28q0,7.31,4.27,11.57t11.72,4.26a26.48,26.48,0,0,0,10.27-1.82,19.32,19.32,0,0,0,7.24-5.18,22.45,22.45,0,0,0,4.34-7.84,32,32,0,0,0,1.44-9.82V184H946v78.7Z"/><path class="cls-11" d="M974.64,184v12.48H975q8.06-14.31,25.57-14.31a34.16,34.16,0,0,1,12.94,2.13,21.34,21.34,0,0,1,8.38,5.94,22.19,22.19,0,0,1,4.49,9.06,48.8,48.8,0,0,1,1.29,11.64V262.7h-12.94V209.42q0-7.3-4.26-11.57t-11.72-4.26a26.53,26.53,0,0,0-10.28,1.82,19.28,19.28,0,0,0-7.23,5.18,22.22,22.22,0,0,0-4.34,7.84,31.75,31.75,0,0,0-1.45,9.82V262.7H962.46V184Z"/><circle class="cls-12" cx="222.34" cy="204.67" r="112"/><path class="cls-13" d="M221.6,222.05a133.72,133.72,0,0,1,33.16,4.16A133.27,133.27,0,0,1,222.17,170a133.13,133.13,0,0,1-32.25,55.87A133.33,133.33,0,0,1,221.6,222.05Z"/><path class="cls-14" d="M222.34,325.72A116.53,116.53,0,1,1,338.86,209.19,116.66,116.66,0,0,1,222.34,325.72Zm0-217.8A101.27,101.27,0,1,0,323.61,209.19,101.39,101.39,0,0,0,222.34,107.92Z"/><g class="cls-15"><circle class="cls-16" cx="67.14" cy="117.31" r="153.7"/><circle class="cls-17" cx="377.55" cy="118.18" r="153.7"/><circle class="cls-18" cx="221.91" cy="386.86" r="153.7"/></g><g class="cls-19"><path class="cls-20" d="M222.37,284.85A75.63,75.63,0,1,1,298,209.22,75.71,75.71,0,0,1,222.37,284.85Zm0-147.87a72.24,72.24,0,1,0,72.24,72.24A72.33,72.33,0,0,0,222.37,137Z"/></g></svg>