<svg width="25" height="21" viewBox="0 0 25 21" fill="none" xmlns="http://www.w3.org/2000/svg">
<path d="M25 2.48593C24.0638 2.9146 23.0709 3.19597 22.0541 3.3207C23.1132 2.66459 23.9264 1.62563 24.3093 0.387708C23.3025 1.00524 22.201 1.44033 21.0523 1.67418C20.1167 0.643891 18.7838 0 17.3085 0C14.4759 0 12.1793 2.37369 12.1793 5.30133C12.1793 5.71689 12.2247 6.12146 12.3121 6.50957C8.04941 6.28841 4.27012 4.17787 1.74033 0.97043C1.29893 1.75342 1.046 2.66419 1.046 3.63563C1.046 5.47494 1.95156 7.09754 3.32773 8.04829C2.51323 8.02192 1.71665 7.79454 1.00449 7.38512C1.0042 7.40732 1.0042 7.42953 1.0042 7.45184C1.0042 10.0204 2.77217 12.1632 5.11846 12.6502C4.36317 12.8625 3.57093 12.8936 2.80225 12.7411C3.45488 14.8473 5.34912 16.3799 7.59346 16.4228C5.83809 17.8446 3.62646 18.6922 1.22354 18.6922C0.809473 18.6922 0.40127 18.6671 0 18.6181C2.26982 20.1223 4.96582 21 7.8623 21C17.2966 21 22.4555 12.9217 22.4555 5.91615C22.4555 5.68621 22.4506 5.45758 22.4406 5.23027C23.4448 4.47997 24.3114 3.55065 25 2.48593Z" fill="#424242"/>
</svg>
